<svg width="128" height="128" viewBox="0 0 128 128" fill="none" xmlns="http://www.w3.org/2000/svg">
<g clip-path="url(#clip0_327_611)">
<path d="M63.9952 127.99C99.3387 127.99 127.99 99.3387 127.99 63.9952C127.99 28.6516 99.3387 0 63.9952 0C28.6516 0 0 28.6516 0 63.9952C0 99.3387 28.6516 127.99 63.9952 127.99Z" fill="#443833"/>
<path d="M82.0275 76.4485C81.3314 80.809 81.3797 86.1943 81.9502 92.005C82.4239 96.9166 83.2651 102.128 84.3479 107.271C84.4736 107.861 84.609 108.451 84.7347 109.041C84.8507 109.563 84.58 109.969 84.2029 110.143C83.7871 110.346 83.236 110.269 82.9267 109.766C82.4142 108.934 81.9018 108.093 81.3797 107.271C80.8383 106.411 80.2872 105.56 79.7264 104.709C76.7002 100.107 73.4806 95.7273 70.2514 92.005C67.5829 88.9401 64.9144 86.3103 62.3426 84.3573C58.7363 81.6211 54.6176 79.6778 50.3828 78.4016C45.9644 77.0673 41.4299 76.4485 37.1951 76.3809C36.3056 76.3712 35.8899 75.3173 36.5183 74.6986C42.4257 68.8782 47.7143 60.66 49.1839 51.5427C49.6577 48.5649 49.7834 45.1132 49.6383 41.3716C49.3676 34.4683 48.1591 26.5886 46.4768 18.9505C46.3608 18.4284 46.6315 18.032 47.0085 17.8483C47.4243 17.6453 47.9754 17.7227 48.2848 18.2254C53.7281 27.1784 60.0899 35.8509 66.1423 41.3716C67.0608 42.2031 67.96 42.9669 68.8591 43.6436C76.2168 49.2223 85.7208 51.4944 94.0067 51.6104C94.8961 51.6201 95.3216 52.6836 94.6931 53.3024C89.7912 58.1269 85.3148 64.6047 83.091 71.8754C82.7236 73.0743 82.4239 74.2925 82.1919 75.5397C82.1339 75.8394 82.0758 76.1392 82.0275 76.4485Z" fill="#FFEF27"/>
<path d="M75.055 64.9617C78.3603 64.9617 81.0398 62.2822 81.0398 58.9769C81.0398 55.6716 78.3603 52.9922 75.055 52.9922C71.7498 52.9922 69.0703 55.6716 69.0703 58.9769C69.0703 62.2822 71.7498 64.9617 75.055 64.9617Z" fill="white"/>
</g>
<defs>
<clipPath id="clip0_327_611">
<rect width="128" height="128" fill="white"/>
</clipPath>
</defs>
</svg>
