<svg width="1640" height="1041" viewBox="0 0 1640 1041" fill="none" xmlns="http://www.w3.org/2000/svg">
<g filter="url(#filter0_d_323_591)">
<path d="M929.194 1029C919.273 1029 909.691 1026.56 900.719 1021.75L854.922 997.644C839.779 989.668 833.598 971.296 840.849 955.803L842.42 952.455C835.288 946.587 830.738 937.691 830.738 927.766V880.927C826.147 873.71 816.245 858.167 809.204 847.102C800.243 833.028 803.473 814.737 816.715 804.571L823.486 799.374C815.365 786.14 817.936 768.648 829.958 758.362L841.75 748.267H358.928C341.285 748.267 326.923 733.913 326.923 716.281V624.503C323.562 621.454 320.512 617.985 317.801 614.137L293.187 579.663C283.696 566.369 285.726 548.127 297.908 537.242L314.011 522.848L299.808 501.838C295.363 495.291 293.511 487.326 294.611 479.491C295.711 471.655 299.684 464.507 305.759 459.437L342.736 428.421H324.553C306.9 428.421 292.547 414.068 292.547 396.436V308.225C286.724 309.976 280.675 310.862 274.594 310.854C267.222 310.858 259.915 309.482 253.05 306.796L245.949 404.832C244.999 421.334 239.298 435.788 229.016 447.792C216.834 462.026 200.212 469.862 182.219 469.862C180.188 469.862 178.128 469.762 176.078 469.553L175.337 469.473L97.4438 459.117C80.6918 456.888 68.5288 441.945 69.7398 425.103L86.2208 197.295L48.8548 197.106C31.3018 197.016 17.0098 182.672 17.0098 165.12V58.668C17.0008 41.036 31.3528 26.683 49.0058 26.683L336.485 28.152C352.917 28.232 366.49 40.816 368.15 56.819H582.856C600.499 56.819 614.861 71.172 614.861 88.804V93.212L628.774 97.46L631.604 98.25V42.235C631.604 24.603 645.967 10.25 663.61 10.25H744.173L744.203 10H899.789V10.12H951.558C980.463 10.12 1003.11 33.03 1003.11 62.266V104.807C1003.11 122.949 991.805 138.502 975.872 144.799L975.842 162.001C975.842 165.24 975.582 168.438 975.052 171.577C982.553 178.044 988.064 186.31 990.975 195.666C995.105 208.96 993.625 223.234 986.804 235.858L975.842 256.159V289.044H1058.48L1140.13 292.203C1173.76 293.812 1197.26 318.521 1197.26 352.285V353.365L1197.05 358.063H1331.07C1331.17 340.511 1345.49 326.267 1363.08 326.267H1445.87C1460.59 326.267 1474.16 332.015 1484.11 342.46C1493.84 352.685 1499.2 366.529 1499.2 381.462V389.968H1499.49V525.237H1530.67C1541.87 525.237 1551.69 531.215 1557.12 540.141H1564.05C1581.7 540.141 1596.06 554.494 1596.06 572.126V715.981C1596.06 730.045 1586.92 742.02 1574.28 746.288L1609.39 772.986C1622.73 783.131 1625.95 802.032 1616.74 816.026L1597.82 844.753L1597.37 907.375C1597.27 920.589 1589.06 931.944 1577.51 936.722L1580.07 944.848L1580.5 946.707C1581.06 949.126 1582.21 954.154 1582.21 960.671C1582.21 974.764 1577.11 988.358 1567.86 998.954C1557.09 1011.59 1541.82 1018.53 1524.85 1018.53L1356.82 1018.23C1350.1 1018.23 1343.55 1016.09 1338.12 1012.12C1327.27 1021.83 1313.5 1027.08 1298.41 1027.08C1284.53 1027.08 1271.5 1022.43 1260.58 1013.61C1254.76 1019.6 1246.61 1023.34 1237.61 1023.34H1164.49C1148.29 1023.34 1133.48 1017.17 1121.65 1005.48L1120.83 1004.67L1120.06 1003.83C1117.59 1001.16 1115.36 998.281 1113.39 995.225C1111.34 998.584 1108.96 1001.73 1106.29 1004.63C1094.72 1017.21 1079.03 1024.14 1062.1 1024.14H997.116C986.334 1024.14 976.002 1021.31 966.931 1015.99C956.469 1024.36 943.337 1028.96 929.174 1028.96L929.194 1029Z" fill="white"/>
</g>
<path d="M1599.72 785.73L1529.05 731.984H1564.07C1572.91 731.984 1580.07 724.828 1580.07 715.992V572.137C1580.07 563.301 1572.91 556.144 1564.07 556.144H1545.61C1545.61 547.918 1538.93 541.241 1530.69 541.241H1483.03V531.515H1483.51V405.972H1483.22V381.473C1483.22 359.123 1467.17 342.27 1445.89 342.27H1363.1C1354.25 342.27 1347.09 349.427 1347.09 358.263V374.126H1345.62V374.066H1180.34L1181.28 353.016V352.296C1181.28 327.107 1164.43 309.385 1139.38 308.186L1058.18 305.047H959.858V252.121L972.74 228.262C982.582 210.04 975.951 188.73 957.327 178.684L956.537 178.254C958.718 173.207 959.858 167.709 959.858 161.972L959.908 131.795C974.9 131.905 987.123 119.791 987.123 104.808V62.2672C987.123 41.9962 971.51 26.1132 951.577 26.1132H903.338V26.2332H898.678C897.763 26.158 896.845 26.118 895.927 26.1132H884.945V25.9932H758.164L758.134 26.2432H663.628C654.787 26.2432 647.625 33.4002 647.625 42.2362V119.311L624.301 112.814L598.867 105.047V88.8052C598.867 79.9692 591.706 72.8122 582.865 72.8122H352.326V60.1382C352.326 51.3422 345.215 44.1952 336.403 44.1452L49.085 42.6752C40.213 42.6252 33.002 49.8022 33.002 58.6682V165.12C33.002 173.916 40.113 181.063 48.925 181.113L103.404 181.393L85.681 426.252C85.071 434.689 91.141 442.145 99.533 443.255L177.186 453.58L177.676 453.63C179.177 453.78 180.697 453.86 182.197 453.86C195.439 453.86 207.731 448.003 216.833 437.377C224.814 428.062 229.225 416.767 229.955 403.783L238.817 281.478L254.049 289.614C260.25 293.033 267.331 294.832 274.583 294.832C286.715 294.832 298.027 290.194 306.418 281.768C307.15 281.026 307.857 280.259 308.538 279.469V396.416C308.538 405.252 315.7 412.409 324.541 412.409H386.681L316.04 471.662C309.769 476.93 308.478 486.075 313.069 492.862L335.083 525.448L308.568 549.147C302.487 554.585 301.467 563.72 306.208 570.357L330.852 604.872C334.243 609.7 338.313 613.678 342.924 616.706V716.262C342.924 725.098 350.085 732.254 358.927 732.254H885.045L840.368 770.487C833.957 775.975 832.907 785.51 837.987 792.247L845.689 802.473L826.466 817.226C819.894 822.274 818.254 831.5 822.705 838.486C832.126 853.29 846.679 876.139 846.739 876.239V927.736C846.739 936.572 853.9 943.729 862.742 943.729H864.152L855.35 962.55C851.73 970.287 854.83 979.493 862.392 983.471L908.249 1007.62C914.88 1011.18 921.932 1012.99 929.203 1012.99C944.145 1012.99 957.167 1006.22 965.379 994.526C973.82 1003.33 985.062 1008.17 997.144 1008.17H1062.13C1074.52 1008.17 1086.03 1003.08 1094.54 993.826C1098.79 989.208 1103.68 981.952 1105.6 971.746C1110.62 974.415 1116.21 976.104 1122.12 976.674C1124.14 982.671 1127.41 988.189 1131.86 993.027L1132.38 993.586L1132.92 994.126C1141.69 1002.79 1152.62 1007.37 1164.52 1007.37H1237.63C1246.48 1007.37 1253.64 1000.21 1253.64 991.377V986.01L1268.93 999.724L1269.3 1000.05C1277.62 1007.29 1287.69 1011.12 1298.42 1011.12C1312.37 1011.12 1324.76 1005 1333.34 993.896L1340.88 984.211L1340.9 986.42C1340.98 995.186 1348.1 1002.25 1356.87 1002.27L1524.88 1002.57C1537.16 1002.57 1548.08 997.595 1555.78 988.529C1562.54 980.832 1566.26 970.935 1566.25 960.691C1566.25 955.993 1565.4 952.305 1564.94 950.316L1564.65 949.076L1556.47 923.158H1565.38C1574.17 923.158 1581.32 916.071 1581.38 907.275L1581.86 839.926L1603.39 807.25C1608.02 800.224 1606.41 790.818 1599.72 785.73Z" fill="#443833"/>
<path d="M1083.29 852.41C1081.08 856.958 1077.38 859.097 1072.71 859.097C1070.25 859.097 1068.03 858.557 1066.06 857.228L1048.08 845.733V855.898H1033.56V878.358H1078.36V911.783H1033.31V937.452H1043.65V922.208H1074.42V962.58C1074.42 966.329 1073.44 969.537 1070.97 972.206C1068.51 974.875 1065.56 976.214 1062.11 976.214H997.125C993.674 976.214 990.724 974.875 988.263 972.206C985.803 969.527 984.573 966.319 984.573 962.58V911.773H967.83L940.505 973.805C938.295 978.623 934.594 981.022 929.183 981.022C927.213 981.022 925.243 980.482 923.272 979.423L890.777 962.31L914.411 911.773H878.715V878.348H922.282V855.888H910.22V847.862L891.017 862.306C888.796 863.905 886.336 864.974 883.876 864.974C879.445 864.974 875.994 862.835 873.534 858.827L857.531 833.688L890.267 808.56L872.544 785.03L905.039 757.223L924.242 783.431L958.948 756.153H919.812V724.598H996.855V760.432L1009.66 768.448V733.684H1040.67C1045.35 733.684 1047.56 736.352 1047.56 741.44V774.325H1018.52L1097.04 824.593L1083.26 852.4L1083.29 852.41ZM974.491 799.204L944.466 821.934H1010.44L974.501 799.204H974.491ZM985.073 855.888H970.8V878.348H985.073V855.888ZM1087.22 801.873L1050.05 793.317L1057.93 753.215L1088.46 759.902C1092.15 760.701 1094.12 762.84 1094.12 766.319C1094.12 767.388 1093.87 768.188 1093.87 768.988L1087.23 801.873H1087.22ZM1308.02 974.335C1305.56 977.543 1302.36 979.153 1298.41 979.153C1295.46 979.153 1292.75 978.083 1290.29 975.944L1207.09 901.348L1236.13 865.254H1215.21L1204.14 875.949V941.19H1221.61V975.414H1164.5C1161.05 975.414 1158.1 974.075 1155.39 971.406C1152.93 968.727 1151.7 965.529 1151.7 961.78V926.216L1134.96 941.72C1132.5 943.859 1129.79 944.928 1126.59 944.928C1122.64 944.928 1119.44 943.589 1117.23 940.65L1095.57 913.642L1147.26 865.244H1104.92V832.089H1187.14V821.394H1122.64V788.769H1187.14V778.073H1115.75V744.119H1187.14V721.929H1241.28C1245.72 721.929 1248.18 724.598 1248.18 729.685V744.129H1319.07V778.083H1248.18V788.779H1312.18V821.404H1248.18V832.099H1329.41V865.254H1292.48L1320.3 890.922L1301.83 914.182L1333.59 941.46L1307.99 974.345L1308.02 974.335ZM1245.99 865.244L1266.91 883.426L1281.43 865.244H1245.99ZM1549.24 831.289C1546.78 835.037 1543.33 836.907 1538.9 836.907C1536.43 836.907 1533.97 836.107 1531.75 834.238L1508.12 816.326V839.585H1392.43V816.326L1367.57 836.917C1365.36 838.786 1362.89 839.585 1360.19 839.585C1356 839.585 1352.55 837.716 1350.09 833.968L1329.91 805.361L1429.6 725.417L1468.24 725.957L1568.43 802.162L1549.23 831.309L1549.24 831.289ZM1549.49 891.182H1449.55L1435.52 932.893H1471.7L1464.07 908.564L1512.81 891.182L1533.73 957.492C1533.98 958.562 1534.22 959.631 1534.22 960.701C1534.22 963.37 1533.24 965.779 1531.51 967.658C1529.79 969.797 1527.57 970.596 1524.86 970.596L1372.74 970.326L1372.49 942.789L1388.73 891.182H1350.08V856.958H1549.71L1549.46 891.182H1549.49ZM1454.96 775.135L1443.64 774.865L1410.41 801.872H1489.92L1454.96 775.135ZM951.576 58.0987H935.343V99.6187L955.117 99.7687V62.2677C955.117 59.4387 953.896 58.0987 951.576 58.0987ZM924.562 78.8787H893.816L897.477 59.9477C897.647 58.9877 896.907 58.0977 895.927 58.0977H867.412L863.431 78.7287H847.329L847.209 102.738H858.55L845.738 164.601L874.413 172.807L888.936 102.878H898.327V145.669H888.936V169.678L921.631 169.528C923.461 169.528 924.932 168.779 926.022 167.439C927.242 165.95 927.852 164.161 927.852 161.922L927.982 83.0567C927.982 80.2187 926.882 78.8787 924.562 78.8787ZM927.853 248.623V307.726C927.853 309.815 927.243 311.594 926.022 313.094C924.802 314.583 923.342 315.323 921.512 315.323H866.972V289.234H897.968V270.543H861.852V199.185L891.497 199.335V244.445H924.442C926.762 244.744 927.853 246.094 927.853 248.623ZM942.135 206.842L915.461 192.458L904.129 213.828L935.144 230.551L944.585 213.079C945.936 210.58 945.196 208.491 942.145 206.842H942.135ZM1552.22 611.759H1513.48V625.203L1540.25 613.708L1546.97 636.408L1530.59 643.575L1541.96 650.292L1532.17 672.092L1503.58 655.219L1500.04 656.709V673.731H1548.07V700.009H1478.29C1476.58 700.009 1475.1 699.259 1473.76 697.77C1472.54 696.281 1471.93 694.332 1471.93 692.243L1472.05 647.893C1472.05 645.204 1473.15 643.265 1475.36 642.215L1482.94 638.337V611.759H1463.62V588.32H1483.06L1483.18 573.236H1510.18C1512.5 573.236 1513.6 574.726 1513.6 577.564V588.32H1552.22V611.759Z" fill="white"/>
<path d="M1181.97 484.756H1113.61V452.071L920.611 451.691V486.275H852.26V404.942L1170.93 405.322C1178.15 405.322 1181.97 409.12 1181.97 416.347V484.756ZM1061.8 613.588V680.857C1061.8 686.175 1059.89 690.743 1056.09 694.541C1052.29 698.719 1047.73 700.619 1042.02 700.619H950.376L949.996 653.87H977.001V613.588H854.55V564.94H977.001V546.698L1008.57 516.292H929.473V469.923H1103.64V505.647C1103.64 514.383 1100.98 521.23 1096.04 526.167L1061.82 558.473V564.93H1178.18V613.578H1061.82L1061.8 613.588ZM888.386 392.967V338.622H937.444C945.425 338.622 949.236 342.8 949.236 350.407V392.967H888.386ZM988.783 392.208V337.862H1037.84C1045.45 337.862 1049.63 342.04 1049.63 349.647V392.208H988.783ZM1147.36 394.867L1086.51 392.588L1088.79 338.242L1137.85 340.141C1145.83 340.521 1149.26 344.319 1149.26 352.306L1147.36 394.867ZM1421.96 499.53V681.237C1421.96 686.555 1420.63 691.503 1417.97 694.921C1415.31 698.72 1412.11 700.619 1408.38 700.619H1255.59C1251.6 700.619 1248.4 698.72 1245.74 694.921C1243.08 691.503 1241.75 686.565 1241.75 681.237V467.614H1209.54V406.042H1313.62V639.426H1350.08V437.947H1451.5V499.52H1421.96V499.53ZM1379.1 425.173V374.246H1401.19C1404.65 374.246 1406.25 376.525 1406.25 381.463L1406.52 425.173H1379.1ZM1415.83 425.173V374.246H1437.92C1441.38 374.246 1443.24 376.525 1443.24 381.463V425.173H1415.83Z" fill="#FFEF27"/>
<path d="M317.27 137.893L289.205 248.063C286.765 258.078 281.884 262.866 274.563 262.866C272.733 262.866 270.902 262.426 269.382 261.557L214.783 232.38L236.136 150.077L65.0176 149.208V74.7405L320.331 76.0505V114.373C320.331 122.65 319.42 130.486 317.28 137.893H317.27ZM198 401.784C197.7 407.881 195.87 412.669 192.509 416.587C189.158 420.505 185.188 422.244 180.917 421.815L118.687 413.538L135.769 177.515L213.553 187.09L198 401.784ZM340.523 380.444V294.223H582.104V380.444H340.523ZM356.386 191.449V104.788H566.862V191.449H356.386ZM823.906 284.236L763.816 267.254L726.6 424.023C724.16 434.908 719.279 440.576 711.958 440.576C710.427 440.576 708.907 440.136 707.687 439.706L635.095 407.48L674.751 241.566L614.351 225.013C608.86 223.274 606.42 218.476 607.64 210.64L617.102 144.01L679.632 161.432V58.2285H770.527V187.13L834.888 205.422L823.906 284.246V284.236Z" fill="#FC8230"/>
<path d="M569.083 441.216H457.974V543.279H576.144V449.072C576.144 443.744 573.874 441.216 569.083 441.216ZM499.151 468.973H533.227V478.889H499.151V468.973ZM534.227 515.802H499.151V505.706H534.227V515.802ZM406.466 437.577L347.636 486.925L363.548 510.474C365.819 514.113 369.349 516.082 373.9 516.082C376.671 516.082 379.201 514.962 381.471 513.273L429.949 472.621L406.466 437.577ZM423.388 489.444L340.564 563.46L356.977 586.45C359.508 590.098 362.788 591.778 367.079 591.778C370.109 591.778 372.63 590.658 374.91 588.699V700.289H425.159V543.839L448.133 523.368L423.388 489.444ZM585.236 601.033V632.999H556.961V686.825C556.961 690.753 555.701 694.121 553.17 696.92C550.65 699.729 547.619 701.128 543.829 701.128H490.96C490.95 701.018 490.92 700.918 490.9 700.808C488.149 688.314 487.169 677.399 488.219 670.842C488.349 670.012 488.529 669.173 488.759 668.323H509.743V632.999H484.559C479.248 632.099 474.417 630.15 470.756 627.381C465.475 623.373 458.624 614.807 451.973 603.882C451.319 602.795 450.48 601.83 449.493 601.033H509.743L509.613 585.65H438.031V553.685H583.465V585.65H556.831L556.961 601.033H585.236ZM818.043 530.556H727.618L727.868 575.695L777.387 575.975V597.565H825.365V538.402C825.365 533.074 822.844 530.556 818.043 530.556ZM770.315 652.79L770.065 633.729H721.087V683.916C721.087 687.844 722.097 691.203 724.618 694.012C727.148 696.531 730.169 697.94 733.709 697.94H826.125V652.79H770.315ZM691.032 508.126L692.042 475.32C692.302 469.993 690.022 467.464 685.481 467.184L631.442 465.505L629.932 508.126H604.938V553.545H628.161L622.931 700.629H684.121L689.522 553.545H716.536V508.406L691.032 508.126ZM134.68 84.4473H82.5598C80.9768 84.4473 79.4587 85.076 78.3391 86.1951C77.2196 87.3143 76.5904 88.8323 76.5898 90.4153C76.5906 91.9981 77.22 93.5158 78.3395 94.6348C79.459 95.7537 80.977 96.3823 82.5598 96.3823H134.68C136.263 96.3825 137.781 95.7541 138.901 94.6351C140.021 93.5161 140.65 91.9983 140.651 90.4153C140.65 88.8321 140.021 87.314 138.901 86.1948C137.781 85.0756 136.263 84.447 134.68 84.4473ZM157.912 84.4473H154.352C153.568 84.447 152.792 84.6012 152.067 84.901C151.343 85.2008 150.685 85.6403 150.13 86.1945C149.576 86.7487 149.136 87.4067 148.836 88.1309C148.536 88.8551 148.381 89.6313 148.381 90.4153C148.381 91.1991 148.536 91.9753 148.836 92.6993C149.136 93.4234 149.576 94.0813 150.131 94.6354C150.685 95.1895 151.343 95.6289 152.067 95.9287C152.792 96.2284 153.568 96.3825 154.352 96.3823H157.912C158.696 96.3825 159.472 96.2284 160.196 95.9287C160.921 95.6289 161.579 95.1895 162.133 94.6354C162.688 94.0813 163.128 93.4234 163.428 92.6993C163.728 91.9753 163.883 91.1991 163.883 90.4153C163.883 89.6313 163.728 88.8551 163.428 88.1309C163.128 87.4067 162.688 86.7487 162.134 86.1945C161.579 85.6403 160.921 85.2008 160.196 84.901C159.472 84.6012 158.696 84.447 157.912 84.4473ZM509.283 319.521H561.402C562.985 319.522 564.503 318.893 565.623 317.774C566.743 316.655 567.372 315.136 567.373 313.553C567.372 311.97 566.743 310.452 565.623 309.333C564.503 308.214 562.985 307.586 561.402 307.586H509.283C507.7 307.586 506.182 308.214 505.062 309.333C503.942 310.452 503.313 311.97 503.312 313.553C503.312 315.136 503.942 316.655 505.061 317.774C506.181 318.893 507.7 319.522 509.283 319.521ZM486.048 319.521H489.609C491.192 319.522 492.71 318.893 493.83 317.774C494.95 316.655 495.579 315.136 495.58 313.553C495.579 311.97 494.95 310.452 493.83 309.333C492.71 308.214 491.192 307.586 489.609 307.586H486.048C484.465 307.586 482.947 308.214 481.827 309.333C480.707 310.452 480.078 311.97 480.077 313.553C480.077 315.136 480.707 316.655 481.826 317.774C482.946 318.893 484.465 319.522 486.048 319.521ZM1121.35 415.657H1069.23C1067.65 415.657 1066.13 416.286 1065.01 417.405C1063.89 418.524 1063.26 420.042 1063.26 421.625C1063.26 423.207 1063.89 424.725 1065.01 425.844C1066.13 426.964 1067.65 427.592 1069.23 427.592H1121.35C1124.64 427.592 1127.32 424.92 1127.32 421.625C1127.32 420.043 1126.69 418.525 1125.57 417.406C1124.45 416.287 1122.93 415.658 1121.35 415.657ZM1144.59 415.657H1141.03C1139.45 415.657 1137.93 416.286 1136.81 417.405C1135.69 418.524 1135.06 420.042 1135.06 421.625C1135.06 423.207 1135.69 424.725 1136.81 425.844C1137.93 426.964 1139.45 427.592 1141.03 427.592H1144.59C1146.17 427.592 1147.69 426.964 1148.81 425.844C1149.93 424.725 1150.56 423.207 1150.56 421.625C1150.56 420.042 1149.93 418.524 1148.81 417.405C1147.69 416.286 1146.17 415.657 1144.59 415.657ZM1276.08 415.298H1223.96C1222.38 415.299 1220.86 415.928 1219.74 417.047C1218.62 418.165 1217.99 419.683 1217.99 421.265C1217.99 422.848 1218.62 424.365 1219.74 425.484C1220.86 426.603 1222.38 427.231 1223.96 427.232H1276.08C1277.66 427.232 1279.18 426.604 1280.3 425.485C1281.42 424.366 1282.05 422.848 1282.05 421.265C1282.05 419.683 1281.42 418.165 1280.3 417.046C1279.18 415.927 1277.66 415.298 1276.08 415.298ZM1299.31 415.298H1295.75C1294.17 415.299 1292.65 415.928 1291.53 417.047C1290.41 418.165 1289.78 419.683 1289.78 421.265C1289.78 422.848 1290.41 424.365 1291.53 425.484C1292.65 426.603 1294.17 427.231 1295.75 427.232H1299.31C1302.61 427.232 1305.29 424.561 1305.29 421.265C1305.29 417.97 1302.61 415.298 1299.31 415.298ZM685.215 174.774L634.943 161.03C633.416 160.612 631.786 160.818 630.412 161.602C629.037 162.386 628.03 163.684 627.612 165.21C627.194 166.737 627.4 168.367 628.184 169.741C628.967 171.116 630.265 172.123 631.792 172.541L682.063 186.286C682.819 186.493 683.608 186.549 684.385 186.451C685.163 186.353 685.914 186.103 686.595 185.715C687.275 185.327 687.873 184.808 688.354 184.189C688.834 183.57 689.188 182.862 689.395 182.106C689.602 181.35 689.658 180.561 689.56 179.784C689.462 179.006 689.212 178.255 688.823 177.575C688.435 176.894 687.917 176.296 687.298 175.816C686.678 175.335 685.971 174.981 685.215 174.774ZM707.694 182.378L704.259 181.439C702.732 181.021 701.102 181.227 699.728 182.011C698.353 182.795 697.346 184.093 696.928 185.619C696.51 187.146 696.716 188.776 697.5 190.15C698.283 191.525 699.581 192.532 701.108 192.95L704.543 193.889C706.069 194.307 707.699 194.101 709.074 193.318C710.449 192.534 711.456 191.236 711.874 189.709C712.292 188.183 712.086 186.553 711.302 185.178C710.518 183.803 709.22 182.796 707.694 182.378Z" fill="white"/>
<path d="M478.337 669.263C477.617 673.771 477.667 679.338 478.257 685.345C478.747 690.423 479.617 695.811 480.738 701.128C480.868 701.738 481.008 702.348 481.138 702.957C481.196 703.182 481.172 703.419 481.072 703.628C480.971 703.837 480.799 704.003 480.587 704.097C480.157 704.307 479.587 704.227 479.267 703.707C478.737 702.847 478.207 701.978 477.667 701.128C477.107 700.239 476.537 699.359 475.957 698.479C472.826 693.722 469.496 689.194 466.155 685.345C463.395 682.177 460.634 679.458 457.974 677.439C454.243 674.61 449.982 672.601 445.602 671.282C441.031 669.902 436.34 669.263 431.959 669.193C431.757 669.193 431.56 669.133 431.393 669.02C431.225 668.908 431.096 668.747 431.02 668.56C430.945 668.373 430.927 668.167 430.97 667.97C431.013 667.773 431.113 667.593 431.259 667.453C437.37 661.436 442.841 652.94 444.361 643.514C444.851 640.436 444.981 636.867 444.831 632.999C444.551 625.862 443.301 617.716 441.561 609.819C441.441 609.28 441.721 608.87 442.111 608.68C442.541 608.47 443.111 608.55 443.431 609.07C449.062 618.326 455.643 627.292 461.904 632.999C462.806 633.824 463.743 634.608 464.715 635.348C472.326 641.115 482.158 643.464 490.729 643.584C491.649 643.594 492.089 644.694 491.439 645.333C486.368 650.321 481.738 657.018 479.437 664.535C479.056 665.779 478.745 667.044 478.507 668.323C478.447 668.633 478.387 668.943 478.337 669.263Z" fill="#FFEF27"/>
<path d="M471.127 657.388C472.768 657.388 474.342 656.736 475.503 655.576C476.664 654.416 477.317 652.842 477.318 651.201C477.317 649.559 476.664 647.986 475.503 646.825C474.342 645.665 472.768 645.013 471.127 645.014C470.314 645.013 469.509 645.173 468.758 645.484C468.007 645.795 467.324 646.25 466.749 646.825C466.174 647.399 465.718 648.081 465.407 648.832C465.096 649.583 464.936 650.388 464.936 651.201C464.936 652.013 465.096 652.818 465.407 653.569C465.718 654.32 466.174 655.002 466.749 655.577C467.324 656.151 468.007 656.607 468.758 656.918C469.509 657.228 470.314 657.388 471.127 657.388Z" fill="white"/>
<defs>
<filter id="filter0_d_323_591" x="9.00977" y="6" width="1620.97" height="1035" filterUnits="userSpaceOnUse" color-interpolation-filters="sRGB">
<feFlood flood-opacity="0" result="BackgroundImageFix"/>
<feColorMatrix in="SourceAlpha" type="matrix" values="0 0 0 0 0 0 0 0 0 0 0 0 0 0 0 0 0 0 127 0" result="hardAlpha"/>
<feOffset dy="4"/>
<feGaussianBlur stdDeviation="4"/>
<feComposite in2="hardAlpha" operator="out"/>
<feColorMatrix type="matrix" values="0 0 0 0 0 0 0 0 0 0 0 0 0 0 0 0 0 0 0.25 0"/>
<feBlend mode="normal" in2="BackgroundImageFix" result="effect1_dropShadow_323_591"/>
<feBlend mode="normal" in="SourceGraphic" in2="effect1_dropShadow_323_591" result="shape"/>
</filter>
</defs>
</svg>
