<svg width="61" height="96" viewBox="0 0 61 96" fill="none" xmlns="http://www.w3.org/2000/svg">
<path d="M47.3819 60.7178C46.6619 65.2278 46.7119 70.7978 47.3019 76.8078C47.7919 81.8878 48.6619 87.2778 49.7819 92.5978C49.9119 93.2078 50.0519 93.8178 50.1819 94.4278C50.3019 94.9678 50.0219 95.3878 49.6319 95.5678C49.2019 95.7778 48.6319 95.6978 48.3119 95.1778C47.7819 94.3178 47.2519 93.4478 46.7119 92.5978C46.1519 91.7078 45.5819 90.8278 45.0019 89.9478C41.8719 85.1878 38.5419 80.6578 35.2019 76.8078C32.4419 73.6378 29.6819 70.9178 27.0219 68.8978C23.2919 66.0678 19.0319 64.0578 14.6519 62.7378C10.0819 61.3578 5.39187 60.7178 1.01187 60.6478C0.0918692 60.6378 -0.338132 59.5478 0.311868 58.9078C6.42187 52.8878 11.8919 44.3878 13.4119 34.9578C13.9019 31.8778 14.0319 28.3078 13.8819 24.4378C13.6019 17.2978 12.3519 9.14778 10.6119 1.24778C10.4919 0.707779 10.7719 0.297777 11.1619 0.107777C11.5919 -0.102223 12.1619 -0.0222212 12.4819 0.497779C18.1119 9.75778 24.6919 18.7278 30.9519 24.4378C31.9019 25.2978 32.8319 26.0878 33.7619 26.7878C41.3719 32.5578 51.2019 34.9078 59.7719 35.0278C60.6919 35.0378 61.1319 36.1378 60.4819 36.7778C55.4119 41.7678 50.7819 48.4678 48.4819 55.9878C48.1019 57.2278 47.7919 58.4878 47.5519 59.7778C47.4919 60.0878 47.4319 60.3978 47.3819 60.7178Z" fill="#FFEF27"/>
<path d="M40.1705 48.837C43.5891 48.837 46.3605 46.0657 46.3605 42.647C46.3605 39.2284 43.5891 36.457 40.1705 36.457C36.7518 36.457 33.9805 39.2284 33.9805 42.647C33.9805 46.0657 36.7518 48.837 40.1705 48.837Z" fill="white"/>
</svg>
